<svg xmlns="http://www.w3.org/2000/svg" width="32.108" height="35.166" viewBox="0 0 32.108 35.166"><path d="M33.252,32.509,25.3,27.739a9.7,9.7,0,0,1-6.25,2.493,9.7,9.7,0,0,1-6.25-2.493l-7.949,4.77A3.841,3.841,0,0,0,3,35.786V41.7a.764.764,0,0,0,.764.764H34.343a.764.764,0,0,0,.764-.764V35.786A3.841,3.841,0,0,0,33.252,32.509Zm-5.789,4.6H22.876a.764.764,0,1,1,0-1.529h4.587a.764.764,0,0,1,0,1.529Z" transform="translate(-3 -7.298)" fill="#81b4a3"/><path d="M21.174,1C15.507,1,12,6.159,12,10.938c0,7.083,4.762,11.467,9.174,11.467s9.174-4.384,9.174-11.467C30.347,6.159,26.84,1,21.174,1Zm0,19.876c-3.511,0-7.28-3.472-7.612-9.132a10.3,10.3,0,0,0,1.474.12,11.371,11.371,0,0,0,7.645-2.926,11.457,11.457,0,0,0,6.105,2.808C28.453,17.4,24.685,20.876,21.174,20.876Z" transform="translate(-5.12 -1)" fill="#81b4a3"/></svg>