<svg xmlns="http://www.w3.org/2000/svg" width="32" height="28.431" viewBox="0 0 32 28.431"><g transform="translate(-2 -5)"><path d="M41.776,29.191l-2.019-2.019-4.283,4.283-4.283-4.283-2.019,2.019,4.283,4.283-4.283,4.283,2.019,2.019,4.283-4.283,4.283,4.283,2.019-2.019-4.283-4.283Z" transform="translate(-7.776 -6.345)" fill="#e86c60"/><path d="M32.7,6.428H2.714A.714.714,0,0,1,2.714,5H32.7a.714.714,0,1,1,0,1.428Z" fill="#b3b3b3"/><path d="M32.7,18.428H2.714a.714.714,0,1,1,0-1.428H32.7a.714.714,0,1,1,0,1.428Z" transform="translate(0 -3.434)" fill="#b3b3b3"/><path d="M16.991,30.428H2.714a.714.714,0,1,1,0-1.428H16.991a.714.714,0,1,1,0,1.428Z" transform="translate(0 -6.868)" fill="#b3b3b3"/><path d="M16.991,42.428H2.714a.714.714,0,0,1,0-1.428H16.991a.714.714,0,0,1,0,1.428Z" transform="translate(0 -10.302)" fill="#b3b3b3"/></g></svg>