<svg xmlns="http://www.w3.org/2000/svg" width="21.921" height="35.074" viewBox="0 0 21.921 35.074"><g transform="translate(0)"><path d="M26.249,35.074H19.672A7.681,7.681,0,0,1,12,27.4V7.672A7.681,7.681,0,0,1,19.672,0h6.576a7.681,7.681,0,0,1,7.672,7.672V27.4A7.681,7.681,0,0,1,26.249,35.074ZM19.672,2.192a5.487,5.487,0,0,0-5.48,5.48V27.4a5.487,5.487,0,0,0,5.48,5.48h6.576a5.487,5.487,0,0,0,5.48-5.48V7.672a5.487,5.487,0,0,0-5.48-5.48Z" transform="translate(-12)" fill="#f36c7f"/><path d="M30.027,16.793h0A1.027,1.027,0,0,1,29,15.766V13.027A1.027,1.027,0,0,1,30.027,12h0a1.027,1.027,0,0,1,1.027,1.027v2.739A1.027,1.027,0,0,1,30.027,16.793Z" transform="translate(-19.067 -2.63)" fill="#f36c7f"/></g></svg>