<svg xmlns="http://www.w3.org/2000/svg" width="32" height="32" viewBox="0 0 32 32"><g transform="translate(-1 -1)"><path d="M31.609,1H2.391A1.391,1.391,0,0,0,1,2.391V31.609A1.391,1.391,0,0,0,2.391,33H31.609A1.391,1.391,0,0,0,33,31.609V2.391A1.391,1.391,0,0,0,31.609,1Z" fill="#e86c60"/><path d="M27.939,25.156l-4.378-4.378L27.939,16.4a.7.7,0,0,0,0-.984l-1.8-1.8a.7.7,0,0,0-.984,0L20.778,18,16.4,13.618a.7.7,0,0,0-.984,0l-1.8,1.8a.7.7,0,0,0,0,.984L18,20.778l-4.378,4.378a.7.7,0,0,0,0,.984l1.8,1.8a.7.7,0,0,0,.984,0l4.378-4.378,4.378,4.378a.7.7,0,0,0,.984,0l1.8-1.8A.7.7,0,0,0,27.939,25.156Z" transform="translate(-3.778 -3.778)" fill="#fff"/></g></svg>